<svg aria-hidden="true" style="position: absolute; width: 0; height: 0; overflow: hidden;" version="1.1" xmlns="http://www.w3.org/2000/svg" xmlns:xlink="http://www.w3.org/1999/xlink">
<defs>
<symbol id="icon-plus" viewBox="0 0 32 32">
<path fill="none" stroke="currentColor" stroke-linecap="round" stroke-linejoin="round" stroke-width="3.2" d="M16 3.302v25.397M3.301 16h25.397"/>
</symbol>
<symbol id="icon-x" viewBox="0 0 32 32">
<path stroke-width="3.4286" stroke-miterlimit="4" stroke-linecap="round" stroke-linejoin="round" d="M24 8l-16 16"></path>
<path stroke-width="3.4286" stroke-miterlimit="4" stroke-linecap="round" stroke-linejoin="round" d="M8 8l16 16"></path>
</symbol>
<symbol id="icon-upload" viewBox="0 0 32 32">
<path stroke-linejoin="round" stroke-linecap="round" stroke-miterlimit="4" stroke-width="2.88" d="M28 20v5.333c0 0.707-0.281 1.386-0.781 1.886s-1.178 0.781-1.886 0.781h-18.667c-0.707 0-1.386-0.281-1.886-0.781s-0.781-1.178-0.781-1.886v-5.333"></path>
<path stroke-linejoin="round" stroke-linecap="round" stroke-miterlimit="4" stroke-width="2.88" d="M22.666 10.667l-6.667-6.667-6.667 6.667"></path>
<path stroke-linejoin="round" stroke-linecap="round" stroke-miterlimit="4" stroke-width="2.88" d="M16 4v16"></path>
</symbol>
<symbol id="icon-trash" viewBox="0 0 32 32">
<path stroke-width="3" stroke-miterlimit="4" stroke-linecap="round" stroke-linejoin="round" d="M12 4h8"></path>
<path stroke-width="3.6" stroke-miterlimit="4" stroke-linecap="round" stroke-linejoin="round" d="M4 8h24M25.333 8l-0.935 14.026c-0.14 2.104-0.21 3.156-0.665 3.954-0.4 0.702-1.004 1.267-1.731 1.62-0.826 0.4-1.881 0.4-3.99 0.4h-4.025c-2.109 0-3.163 0-3.99-0.4-0.727-0.353-1.331-0.917-1.731-1.62-0.455-0.798-0.525-1.85-0.665-3.954l-0.935-14.026"></path>
</symbol>
<symbol id="icon-settings" viewBox="0 0 30 32">
<path stroke-linejoin="round" stroke-linecap="round" stroke-miterlimit="4" stroke-width="2.8235" d="M15.059 19.765c2.079 0 3.765-1.686 3.765-3.765s-1.686-3.765-3.765-3.765c-2.079 0-3.765 1.685-3.765 3.765s1.685 3.765 3.765 3.765z"></path>
<path stroke-linejoin="round" stroke-linecap="round" stroke-miterlimit="4" stroke-width="2.8235" d="M24.345 19.765c-0.167 0.379-0.217 0.798-0.143 1.205s0.268 0.783 0.557 1.078l0.075 0.075c0.233 0.233 0.418 0.51 0.545 0.815s0.191 0.631 0.191 0.961c0 0.33-0.065 0.657-0.191 0.961s-0.311 0.582-0.545 0.815c-0.233 0.233-0.51 0.418-0.814 0.545s-0.631 0.191-0.961 0.191c-0.33 0-0.656-0.065-0.961-0.191s-0.581-0.311-0.814-0.545l-0.075-0.075c-0.296-0.289-0.671-0.483-1.079-0.557s-0.827-0.024-1.205 0.143c-0.371 0.159-0.688 0.423-0.911 0.76s-0.343 0.731-0.344 1.135v0.213c0 0.666-0.264 1.304-0.735 1.775s-1.109 0.735-1.775 0.735-1.304-0.264-1.775-0.735c-0.471-0.471-0.735-1.109-0.735-1.775v-0.113c-0.010-0.415-0.144-0.818-0.386-1.156s-0.579-0.595-0.969-0.739c-0.379-0.167-0.798-0.217-1.205-0.143s-0.783 0.268-1.079 0.557l-0.075 0.075c-0.233 0.233-0.51 0.418-0.815 0.545s-0.631 0.191-0.961 0.191c-0.33 0-0.656-0.065-0.961-0.191s-0.581-0.311-0.815-0.545c-0.233-0.233-0.418-0.51-0.545-0.814s-0.191-0.631-0.191-0.961 0.065-0.656 0.191-0.961c0.126-0.305 0.311-0.581 0.545-0.815l0.075-0.075c0.289-0.296 0.483-0.671 0.557-1.078s0.024-0.827-0.143-1.205c-0.159-0.371-0.423-0.688-0.76-0.911s-0.731-0.343-1.135-0.344h-0.213c-0.666 0-1.304-0.264-1.775-0.735s-0.735-1.109-0.735-1.775c0-0.666 0.264-1.304 0.735-1.775s1.109-0.735 1.775-0.735h0.113c0.415-0.010 0.818-0.144 1.156-0.386s0.595-0.579 0.739-0.969c0.167-0.379 0.217-0.798 0.143-1.205s-0.268-0.783-0.557-1.078l-0.075-0.075c-0.233-0.233-0.418-0.51-0.545-0.815s-0.191-0.631-0.191-0.961c0-0.33 0.065-0.656 0.191-0.961s0.311-0.582 0.545-0.815c0.233-0.233 0.51-0.418 0.815-0.545s0.631-0.191 0.961-0.191c0.33 0 0.656 0.065 0.961 0.191s0.582 0.311 0.815 0.545l0.075 0.075c0.296 0.289 0.671 0.483 1.078 0.557s0.827 0.024 1.205-0.143h0.1c0.371-0.159 0.688-0.423 0.911-0.76s0.343-0.731 0.344-1.135v-0.213c0-0.666 0.264-1.304 0.735-1.775s1.109-0.735 1.775-0.735c0.666 0 1.304 0.264 1.775 0.735s0.735 1.109 0.735 1.775v0.113c0.002 0.404 0.121 0.798 0.344 1.135s0.54 0.601 0.911 0.76c0.379 0.167 0.798 0.217 1.205 0.143s0.783-0.268 1.078-0.557l0.075-0.075c0.233-0.233 0.51-0.418 0.815-0.545s0.631-0.191 0.961-0.191c0.33 0 0.656 0.065 0.961 0.191s0.581 0.311 0.814 0.545c0.233 0.233 0.418 0.51 0.545 0.815s0.191 0.631 0.191 0.961c0 0.33-0.065 0.656-0.191 0.961s-0.311 0.581-0.545 0.815l-0.075 0.075c-0.289 0.296-0.483 0.671-0.557 1.078s-0.024 0.827 0.143 1.205v0.1c0.159 0.371 0.423 0.688 0.76 0.911s0.731 0.343 1.135 0.344h0.213c0.666 0 1.304 0.264 1.775 0.735s0.735 1.109 0.735 1.775-0.264 1.304-0.735 1.775c-0.471 0.471-1.109 0.735-1.775 0.735h-0.113c-0.404 0.002-0.798 0.121-1.135 0.344s-0.601 0.539-0.76 0.911z"></path>
</symbol>
<symbol id="icon-pie-chart" viewBox="0 0 32 32">
<path fill="none" stroke="#323f47" stroke-width="2.6667" stroke-miterlimit="4" stroke-linecap="round" stroke-linejoin="round" style="stroke: var(--color2, #323f47)" d="M22.933 18.667c0.369 0 0.554 0 0.704 0.082 0.123 0.068 0.238 0.195 0.293 0.324 0.067 0.157 0.050 0.324 0.016 0.659-0.174 1.733-0.77 3.404-1.744 4.861-1.172 1.754-2.838 3.121-4.787 3.929s-4.094 1.019-6.163 0.607c-2.069-0.412-3.97-1.428-5.462-2.919s-2.508-3.392-2.919-5.461c-0.412-2.069-0.2-4.214 0.607-6.163s2.175-3.615 3.929-4.787c1.457-0.974 3.128-1.57 4.861-1.744 0.334-0.034 0.502-0.050 0.659 0.016 0.13 0.055 0.257 0.17 0.324 0.293 0.082 0.15 0.082 0.334 0.082 0.704v8.533c0 0.373 0 0.56 0.073 0.703 0.064 0.125 0.166 0.227 0.291 0.291 0.143 0.073 0.329 0.073 0.703 0.073h8.533z"></path>
<path fill="none" stroke="#9be1a0" stroke-width="2.6667" stroke-miterlimit="4" stroke-linecap="round" stroke-linejoin="round" style="stroke: var(--color3, #9be1a0)" d="M18.667 3.733c0-0.369 0-0.554 0.082-0.704 0.068-0.123 0.195-0.238 0.324-0.293 0.157-0.067 0.324-0.050 0.659-0.016 2.438 0.245 4.73 1.323 6.478 3.071s2.826 4.040 3.071 6.478c0.033 0.334 0.050 0.502-0.016 0.659-0.055 0.13-0.17 0.257-0.293 0.324-0.15 0.082-0.334 0.082-0.704 0.082h-8.533c-0.373 0-0.56 0-0.703-0.073-0.125-0.064-0.227-0.166-0.291-0.291-0.073-0.143-0.073-0.329-0.073-0.703v-8.533z"></path>
</symbol>
<symbol id="icon-log-out" viewBox="0 0 32 32">
<path stroke-width="3" stroke-miterlimit="4" stroke-linecap="round" stroke-linejoin="round" d="M12 28h-5.333c-0.707 0-1.386-0.281-1.886-0.781s-0.781-1.178-0.781-1.886v-18.667c0-0.707 0.281-1.386 0.781-1.886s1.178-0.781 1.886-0.781h5.333"></path>
<path stroke-width="3" stroke-miterlimit="4" stroke-linecap="round" stroke-linejoin="round" d="M21.334 22.667l6.667-6.667-6.667-6.667"></path>
<path stroke-width="3" stroke-miterlimit="4" stroke-linecap="round" stroke-linejoin="round" d="M28 16h-16"></path>
</symbol>
<symbol id="icon-eye-off" viewBox="0 0 32 32">
<path stroke-width="2.88" stroke-miterlimit="4" stroke-linecap="round" stroke-linejoin="round" d="M23.92 23.92c-2.279 1.737-5.055 2.7-7.92 2.747-9.333 0-14.667-10.667-14.667-10.667 1.659-3.091 3.959-5.791 6.747-7.92M13.2 5.653c0.918-0.215 1.857-0.322 2.8-0.32 9.333 0 14.667 10.667 14.667 10.667-0.809 1.514-1.775 2.94-2.88 4.253M18.826 18.827c-0.366 0.393-0.808 0.708-1.298 0.927s-1.020 0.336-1.557 0.346-1.071-0.089-1.569-0.291c-0.498-0.201-0.951-0.5-1.33-0.88s-0.679-0.832-0.88-1.33c-0.201-0.498-0.3-1.032-0.29-1.569s0.127-1.067 0.346-1.557 0.534-0.932 0.927-1.298"></path>
<path stroke-width="2.88" stroke-miterlimit="4" stroke-linecap="round" stroke-linejoin="round" d="M1.333 1.333l29.333 29.333"></path>
</symbol>
<symbol id="icon-eye" viewBox="0 0 32 32">
<path stroke-width="2.88" stroke-miterlimit="4" stroke-linecap="round" stroke-linejoin="round" d="M1.333 16c0 0 5.333-10.667 14.667-10.667s14.667 10.667 14.667 10.667c0 0-5.333 10.667-14.667 10.667s-14.667-10.667-14.667-10.667z"></path>
<path stroke-width="2.88" stroke-miterlimit="4" stroke-linecap="round" stroke-linejoin="round" d="M16 20c2.209 0 4-1.791 4-4s-1.791-4-4-4c-2.209 0-4 1.791-4 4s1.791 4 4 4z"></path>
</symbol>
<symbol id="icon-edit" viewBox="0 0 32 32">
<path stroke-width="3.6" stroke-miterlimit="4" stroke-linecap="round" stroke-linejoin="round" d="M22.666 4c0.35-0.35 0.766-0.628 1.223-0.817s0.948-0.287 1.443-0.287c0.495 0 0.986 0.098 1.443 0.287s0.873 0.467 1.224 0.817 0.628 0.766 0.817 1.223c0.19 0.458 0.287 0.948 0.287 1.443s-0.098 0.986-0.287 1.443c-0.189 0.458-0.467 0.873-0.817 1.223l-18 18-7.333 2 2-7.333 18-18z"></path>
</symbol>
<symbol id="icon-minus" viewBox="0 0 32 32">
<path fill="none" stroke-linejoin="round" stroke-linecap="round" stroke-miterlimit="4" stroke-width="2.6667" d="M6.667 16h18.667"></path>
<symbol id="icon-logo" viewBox="0 0 207 32">
<path d="M17.4 22.699h-8.387l-1.343 3.968h-5.728l8.128-22.464h6.336l8.128 22.464h-5.792l-1.344-3.968zM15.991 18.475l-2.784-8.224-2.752 8.224h5.536zM42.689 30.507l-2.88-3.872c-0.749 0.16-1.611 0.253-2.494 0.256h-0.002c-2.112 0-4.053-0.491-5.824-1.472-1.749-0.988-3.167-2.376-4.164-4.045l-0.028-0.051c-1.024-1.771-1.536-3.755-1.536-5.952s0.512-4.171 1.536-5.92c1.025-1.72 2.443-3.108 4.136-4.067l0.056-0.029c1.771-0.981 3.712-1.472 5.824-1.472s4.043 0.491 5.792 1.472c1.752 0.971 3.165 2.363 4.133 4.044l0.027 0.052c1.024 1.749 1.535 3.723 1.535 5.92 0 1.92-0.395 3.68-1.184 5.28-0.773 1.584-1.867 2.904-3.205 3.916l-0.027 0.020 4.928 5.92h-6.624zM31.36 15.371c0 1.984 0.533 3.573 1.6 4.768 1.088 1.173 2.539 1.76 4.352 1.76 1.792 0 3.221-0.597 4.288-1.792 1.088-1.195 1.632-2.773 1.632-4.736 0-1.984-0.544-3.563-1.632-4.736-1.067-1.195-2.496-1.792-4.288-1.792-1.813 0-3.264 0.587-4.352 1.76-1.067 1.173-1.6 2.763-1.6 4.768zM56.963 4.203v13.44c0 1.344 0.331 2.379 0.992 3.104s1.632 1.088 2.912 1.088c1.28 0 2.261-0.363 2.944-1.088s1.024-1.76 1.024-3.104v-13.44h5.472v13.408c0 2.005-0.427 3.701-1.28 5.088-0.831 1.357-2.007 2.43-3.408 3.115l-0.048 0.021c-1.429 0.704-3.029 1.056-4.8 1.056s-3.36-0.341-4.768-1.024c-1.387-0.704-2.485-1.749-3.296-3.136-0.811-1.408-1.216-3.115-1.216-5.12v-13.408h5.472zM87.813 22.699h-8.385l-1.343 3.968h-5.725l8.128-22.464h6.336l8.127 22.464h-5.792l-1.344-3.968zM86.405 18.475l-2.785-8.224-2.751 8.224h5.536zM113.264 4.203v4.384h-5.952v18.080h-5.472v-18.080h-5.952v-4.384h17.376zM127.147 26.667l-4.672-8.48h-1.312v8.48h-5.473v-22.464h9.185c1.771 0 3.275 0.309 4.511 0.928 1.26 0.619 2.197 1.472 2.816 2.56 0.62 1.067 0.929 2.261 0.929 3.584 0 1.493-0.427 2.827-1.28 4-0.833 1.173-2.071 2.005-3.713 2.496l5.185 8.896h-6.177zM121.161 14.315h3.392c1.003 0 1.751-0.245 2.24-0.736 0.513-0.491 0.768-1.184 0.768-2.080 0-0.853-0.256-1.525-0.768-2.016-0.489-0.491-1.236-0.736-2.24-0.736h-3.392v5.568zM150.229 22.699h-8.384l-1.344 3.968h-5.728l8.128-22.464h6.336l8.128 22.464h-5.792l-1.344-3.968zM148.821 18.475l-2.784-8.224-2.752 8.224h5.536zM158.591 15.403c0-2.219 0.48-4.192 1.44-5.92 0.937-1.719 2.3-3.102 3.95-4.038l0.050-0.026c1.728-0.981 3.68-1.472 5.856-1.472 2.667 0 4.949 0.704 6.848 2.112s3.168 3.328 3.808 5.76h-6.016c-0.448-0.939-1.088-1.653-1.92-2.144-0.811-0.491-1.739-0.736-2.784-0.736-1.685 0-3.051 0.587-4.096 1.76s-1.568 2.741-1.568 4.704 0.523 3.531 1.568 4.704c1.045 1.173 2.411 1.76 4.096 1.76 1.045 0 1.973-0.245 2.784-0.736 0.832-0.491 1.472-1.205 1.92-2.144h6.016c-0.64 2.432-1.909 4.352-3.808 5.76-1.899 1.387-4.181 2.080-6.848 2.080-2.176 0-4.128-0.48-5.856-1.44-1.691-0.974-3.050-2.354-3.973-4.011l-0.027-0.053c-0.96-1.728-1.44-3.701-1.44-5.92zM196.597 26.667l-7.552-9.92v9.92h-5.472v-22.464h5.472v9.856l7.488-9.856h6.432l-8.704 11.008 9.024 11.456h-6.688z"></path>
</symbol>
<symbol id="icon-glass" viewBox="0 0 31 32">
<path d="M26.955 5.226c-0.095-0.321-0.254-0.616-0.468-0.868s-0.477-0.452-0.772-0.589c-0.293-0.142-0.613-0.214-0.937-0.21h-18.216c-0.323-0.019-0.646 0.049-0.937 0.197-0.301 0.139-0.57 0.345-0.785 0.604-0.214 0.251-0.374 0.546-0.468 0.866-0.098 0.318-0.128 0.654-0.089 0.984l2.076 18.377c0.139 1.258 0.722 2.415 1.633 3.255 0.891 0.839 2.050 1.307 3.253 1.313h8.861c1.207-0.005 2.37-0.473 3.266-1.313 0.899-0.848 1.475-2.004 1.62-3.255l1.127-10.331v-0.158l0.873-7.876c0.049-0.332 0.036-0.671-0.038-0.998zM14.17 25.375h-1.266c-0.82-0.047-1.601-0.38-2.215-0.945-0.612-0.572-1.015-1.347-1.139-2.192l-0.304-2.258c-0.039-0.344 0.053-0.691 0.258-0.965s0.504-0.455 0.835-0.503 0.667 0.040 0.936 0.246c0.269 0.206 0.45 0.512 0.503 0.854l0.304 2.232c0.034 0.244 0.151 0.467 0.329 0.63 0.177 0.168 0.406 0.266 0.646 0.276h1.266c0.336 0 0.658 0.138 0.895 0.384s0.371 0.58 0.371 0.928-0.133 0.682-0.371 0.928c-0.237 0.246-0.559 0.384-0.895 0.384h-0.152zM24.297 13.259c-2.671 0.538-4.949 0.643-7.367-1.313-3-2.455-6.633-1.667-10.127-0.381l-0.633-5.566c-0.012-0.056-0.012-0.114 0-0.171 0.017-0.055 0.048-0.105 0.089-0.144 0.030-0.048 0.074-0.085 0.127-0.105 0.050-0.015 0.102-0.015 0.152 0h18.38c0.047 0.028 0.090 0.063 0.127 0.105 0.038 0.039 0.063 0.091 0.076 0.144 0.019 0.060 0.019 0.124 0 0.184l-0.823 7.246z"></path>
</symbol>
<symbol id="icon-vector-down" viewBox="0 0 48 32">
<path stroke-linejoin="round" stroke-linecap="round" stroke-miterlimit="4" stroke-width="8" d="M4 6l20 20 20-20"></path>
</symbol>
<symbol id="icon-vector-up" viewBox="0 0 48 32">
<path stroke-linejoin="round" stroke-linecap="round" stroke-miterlimit="4" stroke-width="8" d="M4 26l20-20 20 20"></path>
</symbol>
<symbol id="icon-chevron-left" viewBox="0 0 32 32">
<path stroke-linejoin="round" stroke-linecap="round" stroke-miterlimit="4" stroke-width="1.7778" d="M12 24l8-8-8-8"></path>
</symbol>
<symbol id="icon-chevron-right" viewBox="0 0 32 32">
<path stroke-linejoin="round" stroke-linecap="round" stroke-miterlimit="4" stroke-width="1.7778" d="M20 24l-8-8 8-8"></path>
</symbol>
</defs>
</svg>
