<svg aria-hidden="true" style="position: absolute; width: 0; height: 0; overflow: hidden;" version="1.1" xmlns="http://www.w3.org/2000/svg" xmlns:xlink="http://www.w3.org/1999/xlink">
<defs>
<symbol id="icon-plus" viewBox="0 0 32 32">
<path fill="none" stroke="#fff" stroke-width="2.6667" stroke-miterlimit="4" stroke-linecap="round" stroke-linejoin="round" style="stroke: var(--color1, #fff)" d="M16 6.667v18.667"></path>
<path fill="none" stroke="#fff" stroke-width="2.6667" stroke-miterlimit="4" stroke-linecap="round" stroke-linejoin="round" style="stroke: var(--color1, #fff)" d="M6.667 16h18.667"></path>
</symbol>
<symbol id="icon-x" viewBox="0 0 32 32">
<path stroke-width="3.4286" stroke-miterlimit="4" stroke-linecap="round" stroke-linejoin="round" d="M24 8l-16 16"></path>
<path stroke-width="3.4286" stroke-miterlimit="4" stroke-linecap="round" stroke-linejoin="round" d="M8 8l16 16"></path>
</symbol>
<symbol id="icon-upload" viewBox="0 0 32 32">
<path stroke-width="2.88" stroke-miterlimit="4" stroke-linecap="round" stroke-linejoin="round" d="M28 20v5.333c0 0.707-0.281 1.386-0.781 1.886s-1.178 0.781-1.886 0.781h-18.667c-0.707 0-1.386-0.281-1.886-0.781s-0.781-1.178-0.781-1.886v-5.333"></path>
<path stroke-width="2.88" stroke-miterlimit="4" stroke-linecap="round" stroke-linejoin="round" d="M22.666 10.667l-6.667-6.667-6.667 6.667"></path>
<path stroke-width="2.88" stroke-miterlimit="4" stroke-linecap="round" stroke-linejoin="round" d="M16 4v16"></path>
</symbol>
<symbol id="icon-trash" viewBox="0 0 32 32">
<path stroke-width="3" stroke-miterlimit="4" stroke-linecap="round" stroke-linejoin="round" d="M12 4h8"></path>
<path stroke-width="3.6" stroke-miterlimit="4" stroke-linecap="round" stroke-linejoin="round" d="M4 8h24M25.333 8l-0.935 14.026c-0.14 2.104-0.21 3.156-0.665 3.954-0.4 0.702-1.004 1.267-1.731 1.62-0.826 0.4-1.881 0.4-3.99 0.4h-4.025c-2.109 0-3.163 0-3.99-0.4-0.727-0.353-1.331-0.917-1.731-1.62-0.455-0.798-0.525-1.85-0.665-3.954l-0.935-14.026"></path>
</symbol>
<symbol id="icon-settings" viewBox="0 0 32 32">
<path stroke-width="3" stroke-miterlimit="4" stroke-linecap="round" stroke-linejoin="round" d="M16 20c2.209 0 4-1.791 4-4s-1.791-4-4-4c-2.209 0-4 1.791-4 4s1.791 4 4 4z"></path>
<path stroke-width="3" stroke-miterlimit="4" stroke-linecap="round" stroke-linejoin="round" d="M25.867 20c-0.178 0.402-0.231 0.848-0.152 1.281s0.285 0.832 0.592 1.146l0.080 0.080c0.248 0.248 0.445 0.542 0.579 0.865s0.203 0.671 0.203 1.021c0 0.35-0.069 0.697-0.203 1.021s-0.331 0.618-0.579 0.865c-0.248 0.248-0.542 0.445-0.866 0.579s-0.671 0.203-1.021 0.203c-0.35 0-0.697-0.069-1.021-0.203s-0.618-0.331-0.865-0.579l-0.080-0.080c-0.314-0.307-0.713-0.514-1.146-0.592s-0.879-0.025-1.281 0.152c-0.394 0.169-0.731 0.45-0.968 0.807s-0.364 0.777-0.366 1.206v0.227c0 0.707-0.281 1.386-0.781 1.886s-1.178 0.781-1.886 0.781-1.386-0.281-1.886-0.781c-0.5-0.5-0.781-1.178-0.781-1.886v-0.12c-0.010-0.441-0.153-0.869-0.41-1.228s-0.616-0.633-1.030-0.785c-0.402-0.178-0.848-0.231-1.281-0.152s-0.832 0.285-1.146 0.592l-0.080 0.080c-0.248 0.248-0.542 0.445-0.865 0.579s-0.671 0.203-1.021 0.203c-0.35 0-0.697-0.069-1.021-0.203s-0.618-0.331-0.865-0.579c-0.248-0.248-0.445-0.542-0.579-0.866s-0.203-0.671-0.203-1.021c0-0.35 0.069-0.697 0.203-1.021s0.331-0.618 0.579-0.865l0.080-0.080c0.307-0.314 0.514-0.713 0.592-1.146s0.025-0.879-0.152-1.281c-0.169-0.394-0.45-0.731-0.807-0.968s-0.777-0.364-1.206-0.366h-0.227c-0.707 0-1.386-0.281-1.886-0.781s-0.781-1.178-0.781-1.886c0-0.707 0.281-1.386 0.781-1.886s1.178-0.781 1.886-0.781h0.12c0.441-0.010 0.869-0.153 1.228-0.41s0.633-0.616 0.785-1.030c0.178-0.402 0.23-0.848 0.152-1.281s-0.285-0.832-0.592-1.146l-0.080-0.080c-0.248-0.248-0.445-0.542-0.579-0.866s-0.203-0.671-0.203-1.021c0-0.35 0.069-0.697 0.203-1.021s0.331-0.618 0.579-0.865c0.248-0.248 0.542-0.445 0.865-0.579s0.671-0.203 1.021-0.203c0.35 0 0.697 0.069 1.021 0.203s0.618 0.331 0.866 0.579l0.080 0.080c0.314 0.307 0.713 0.514 1.146 0.592s0.879 0.025 1.281-0.152h0.107c0.394-0.169 0.731-0.45 0.968-0.807s0.364-0.777 0.366-1.206v-0.227c0-0.707 0.281-1.386 0.781-1.886s1.178-0.781 1.886-0.781c0.707 0 1.386 0.281 1.886 0.781s0.781 1.178 0.781 1.886v0.12c0.002 0.429 0.129 0.848 0.366 1.206s0.573 0.638 0.968 0.807c0.402 0.177 0.848 0.23 1.281 0.152s0.832-0.285 1.146-0.592l0.080-0.080c0.248-0.248 0.542-0.445 0.865-0.579s0.671-0.203 1.021-0.203c0.35 0 0.697 0.069 1.021 0.203s0.618 0.331 0.865 0.579c0.248 0.248 0.445 0.542 0.579 0.865s0.203 0.671 0.203 1.021c0 0.35-0.069 0.697-0.203 1.021s-0.331 0.618-0.579 0.865l-0.080 0.080c-0.307 0.314-0.514 0.713-0.592 1.146s-0.025 0.879 0.152 1.281v0.107c0.169 0.394 0.45 0.731 0.807 0.968s0.777 0.364 1.206 0.366h0.227c0.707 0 1.386 0.281 1.886 0.781s0.781 1.178 0.781 1.886-0.281 1.386-0.781 1.886c-0.5 0.5-1.178 0.781-1.886 0.781h-0.12c-0.429 0.002-0.848 0.129-1.206 0.366s-0.638 0.573-0.807 0.968z"></path>
</symbol>
<symbol id="icon-pie-chart" viewBox="0 0 32 32">
<path fill="none" stroke="#323f47" stroke-width="2.6667" stroke-miterlimit="4" stroke-linecap="round" stroke-linejoin="round" style="stroke: var(--color2, #323f47)" d="M22.933 18.667c0.369 0 0.554 0 0.704 0.082 0.123 0.068 0.238 0.195 0.293 0.324 0.067 0.157 0.050 0.324 0.016 0.659-0.174 1.733-0.77 3.404-1.744 4.861-1.172 1.754-2.838 3.121-4.787 3.929s-4.094 1.019-6.163 0.607c-2.069-0.412-3.97-1.428-5.462-2.919s-2.508-3.392-2.919-5.461c-0.412-2.069-0.2-4.214 0.607-6.163s2.175-3.615 3.929-4.787c1.457-0.974 3.128-1.57 4.861-1.744 0.334-0.034 0.502-0.050 0.659 0.016 0.13 0.055 0.257 0.17 0.324 0.293 0.082 0.15 0.082 0.334 0.082 0.704v8.533c0 0.373 0 0.56 0.073 0.703 0.064 0.125 0.166 0.227 0.291 0.291 0.143 0.073 0.329 0.073 0.703 0.073h8.533z"></path>
<path fill="none" stroke="#9be1a0" stroke-width="2.6667" stroke-miterlimit="4" stroke-linecap="round" stroke-linejoin="round" style="stroke: var(--color3, #9be1a0)" d="M18.667 3.733c0-0.369 0-0.554 0.082-0.704 0.068-0.123 0.195-0.238 0.324-0.293 0.157-0.067 0.324-0.050 0.659-0.016 2.438 0.245 4.73 1.323 6.478 3.071s2.826 4.040 3.071 6.478c0.033 0.334 0.050 0.502-0.016 0.659-0.055 0.13-0.17 0.257-0.293 0.324-0.15 0.082-0.334 0.082-0.704 0.082h-8.533c-0.373 0-0.56 0-0.703-0.073-0.125-0.064-0.227-0.166-0.291-0.291-0.073-0.143-0.073-0.329-0.073-0.703v-8.533z"></path>
</symbol>
<symbol id="icon-log-out" viewBox="0 0 32 32">
<path stroke-width="3" stroke-miterlimit="4" stroke-linecap="round" stroke-linejoin="round" d="M12 28h-5.333c-0.707 0-1.386-0.281-1.886-0.781s-0.781-1.178-0.781-1.886v-18.667c0-0.707 0.281-1.386 0.781-1.886s1.178-0.781 1.886-0.781h5.333"></path>
<path stroke-width="3" stroke-miterlimit="4" stroke-linecap="round" stroke-linejoin="round" d="M21.334 22.667l6.667-6.667-6.667-6.667"></path>
<path stroke-width="3" stroke-miterlimit="4" stroke-linecap="round" stroke-linejoin="round" d="M28 16h-16"></path>
</symbol>
<symbol id="icon-eye-off" viewBox="0 0 32 32">
<path stroke-width="2.88" stroke-miterlimit="4" stroke-linecap="round" stroke-linejoin="round" d="M23.92 23.92c-2.279 1.737-5.055 2.7-7.92 2.747-9.333 0-14.667-10.667-14.667-10.667 1.659-3.091 3.959-5.791 6.747-7.92M13.2 5.653c0.918-0.215 1.857-0.322 2.8-0.32 9.333 0 14.667 10.667 14.667 10.667-0.809 1.514-1.775 2.94-2.88 4.253M18.826 18.827c-0.366 0.393-0.808 0.708-1.298 0.927s-1.020 0.336-1.557 0.346-1.071-0.089-1.569-0.291c-0.498-0.201-0.951-0.5-1.33-0.88s-0.679-0.832-0.88-1.33c-0.201-0.498-0.3-1.032-0.29-1.569s0.127-1.067 0.346-1.557 0.534-0.932 0.927-1.298"></path>
<path stroke-width="2.88" stroke-miterlimit="4" stroke-linecap="round" stroke-linejoin="round" d="M1.333 1.333l29.333 29.333"></path>
</symbol>
<symbol id="icon-eye" viewBox="0 0 32 32">
<path stroke-width="2.88" stroke-miterlimit="4" stroke-linecap="round" stroke-linejoin="round" d="M1.333 16c0 0 5.333-10.667 14.667-10.667s14.667 10.667 14.667 10.667c0 0-5.333 10.667-14.667 10.667s-14.667-10.667-14.667-10.667z"></path>
<path stroke-width="2.88" stroke-miterlimit="4" stroke-linecap="round" stroke-linejoin="round" d="M16 20c2.209 0 4-1.791 4-4s-1.791-4-4-4c-2.209 0-4 1.791-4 4s1.791 4 4 4z"></path>
</symbol>
<symbol id="icon-edit" viewBox="0 0 32 32">
<path stroke-width="3.6" stroke-miterlimit="4" stroke-linecap="round" stroke-linejoin="round" d="M22.666 4c0.35-0.35 0.766-0.628 1.223-0.817s0.948-0.287 1.443-0.287c0.495 0 0.986 0.098 1.443 0.287s0.873 0.467 1.224 0.817 0.628 0.766 0.817 1.223c0.19 0.458 0.287 0.948 0.287 1.443s-0.098 0.986-0.287 1.443c-0.189 0.458-0.467 0.873-0.817 1.223l-18 18-7.333 2 2-7.333 18-18z"></path>
</symbol>
<symbol id="icon-logo" viewBox="0 0 207 32">
<path d="M17.4 22.699h-8.387l-1.343 3.968h-5.728l8.128-22.464h6.336l8.128 22.464h-5.792l-1.344-3.968zM15.991 18.475l-2.784-8.224-2.752 8.224h5.536zM42.689 30.507l-2.88-3.872c-0.749 0.16-1.611 0.253-2.494 0.256h-0.002c-2.112 0-4.053-0.491-5.824-1.472-1.749-0.988-3.167-2.376-4.164-4.045l-0.028-0.051c-1.024-1.771-1.536-3.755-1.536-5.952s0.512-4.171 1.536-5.92c1.025-1.72 2.443-3.108 4.136-4.067l0.056-0.029c1.771-0.981 3.712-1.472 5.824-1.472s4.043 0.491 5.792 1.472c1.752 0.971 3.165 2.363 4.133 4.044l0.027 0.052c1.024 1.749 1.535 3.723 1.535 5.92 0 1.92-0.395 3.68-1.184 5.28-0.773 1.584-1.867 2.904-3.205 3.916l-0.027 0.020 4.928 5.92h-6.624zM31.36 15.371c0 1.984 0.533 3.573 1.6 4.768 1.088 1.173 2.539 1.76 4.352 1.76 1.792 0 3.221-0.597 4.288-1.792 1.088-1.195 1.632-2.773 1.632-4.736 0-1.984-0.544-3.563-1.632-4.736-1.067-1.195-2.496-1.792-4.288-1.792-1.813 0-3.264 0.587-4.352 1.76-1.067 1.173-1.6 2.763-1.6 4.768zM56.963 4.203v13.44c0 1.344 0.331 2.379 0.992 3.104s1.632 1.088 2.912 1.088c1.28 0 2.261-0.363 2.944-1.088s1.024-1.76 1.024-3.104v-13.44h5.472v13.408c0 2.005-0.427 3.701-1.28 5.088-0.831 1.357-2.007 2.43-3.408 3.115l-0.048 0.021c-1.429 0.704-3.029 1.056-4.8 1.056s-3.36-0.341-4.768-1.024c-1.387-0.704-2.485-1.749-3.296-3.136-0.811-1.408-1.216-3.115-1.216-5.12v-13.408h5.472zM87.813 22.699h-8.385l-1.343 3.968h-5.725l8.128-22.464h6.336l8.127 22.464h-5.792l-1.344-3.968zM86.405 18.475l-2.785-8.224-2.751 8.224h5.536zM113.264 4.203v4.384h-5.952v18.080h-5.472v-18.080h-5.952v-4.384h17.376zM127.147 26.667l-4.672-8.48h-1.312v8.48h-5.473v-22.464h9.185c1.771 0 3.275 0.309 4.511 0.928 1.26 0.619 2.197 1.472 2.816 2.56 0.62 1.067 0.929 2.261 0.929 3.584 0 1.493-0.427 2.827-1.28 4-0.833 1.173-2.071 2.005-3.713 2.496l5.185 8.896h-6.177zM121.161 14.315h3.392c1.003 0 1.751-0.245 2.24-0.736 0.513-0.491 0.768-1.184 0.768-2.080 0-0.853-0.256-1.525-0.768-2.016-0.489-0.491-1.236-0.736-2.24-0.736h-3.392v5.568zM150.229 22.699h-8.384l-1.344 3.968h-5.728l8.128-22.464h6.336l8.128 22.464h-5.792l-1.344-3.968zM148.821 18.475l-2.784-8.224-2.752 8.224h5.536zM158.591 15.403c0-2.219 0.48-4.192 1.44-5.92 0.937-1.719 2.3-3.102 3.95-4.038l0.050-0.026c1.728-0.981 3.68-1.472 5.856-1.472 2.667 0 4.949 0.704 6.848 2.112s3.168 3.328 3.808 5.76h-6.016c-0.448-0.939-1.088-1.653-1.92-2.144-0.811-0.491-1.739-0.736-2.784-0.736-1.685 0-3.051 0.587-4.096 1.76s-1.568 2.741-1.568 4.704 0.523 3.531 1.568 4.704c1.045 1.173 2.411 1.76 4.096 1.76 1.045 0 1.973-0.245 2.784-0.736 0.832-0.491 1.472-1.205 1.92-2.144h6.016c-0.64 2.432-1.909 4.352-3.808 5.76-1.899 1.387-4.181 2.080-6.848 2.080-2.176 0-4.128-0.48-5.856-1.44-1.691-0.974-3.050-2.354-3.973-4.011l-0.027-0.053c-0.96-1.728-1.44-3.701-1.44-5.92zM196.597 26.667l-7.552-9.92v9.92h-5.472v-22.464h5.472v9.856l7.488-9.856h6.432l-8.704 11.008 9.024 11.456h-6.688z"></path>
</symbol>
</defs>
</svg>
